<?xml version="1.0" encoding="utf-8"?>

<!DOCTYPE svg PUBLIC "-//W3C//DTD SVG 1.1//EN" "http://www.w3.org/Graphics/SVG/1.1/DTD/svg11.dtd">
<svg version="1.1" id="Layer_1" xmlns="http://www.w3.org/2000/svg" xmlns:xlink="http://www.w3.org/1999/xlink" x="0px" y="0px"
	 viewBox="0 0 1372.932 1628.128" enable-background="new 0 0 1372.932 1628.128" xml:space="preserve">
<g>
	<path d="M1131.579,1226.32c4.524-10.207,8.967-20.455,13.251-30.744c-10.207,2.242-20.455,4.404-30.704,6.405
		c67.253-61.048,130.743-129.222,170.054-212.086c74.629-138.714,92.448-309.333,68.43-414.279
		c-16.345-71.419-37.426-141.976-72.088-206.567C1195.655,210.909,1051.25,95.894,899.197,48.879
		C781.04,12.345,661.504,2.562,540.457,29.146C410.72,57.638,289.116,125.592,196.756,221.79
		c-283.388,295.163-229.09,743.898,61.913,979.538c-10.952-1.848-21.904-3.697-32.857-5.545
		c4.044,10.045,8.088,20.089,12.132,30.134c-7.958,4.515-19.616,9.116-25.514,15.276c38.503-6.474,78.274-17.431,113.399-34.648
		c-18.415,135.466-6.005,271.812,1.361,407.518h3.122c1.761-88.19,12.21-175.858,17.534-263.847
		c2.762-57.485,17.573-113.289,28.542-169.493c4.724,15.052,8.607,30.504,15.252,44.915c7.046,20.495,26.26,32.025,41.632,45.916
		c-0.2-19.416-0.52-38.79,0.641-58.166c13.77,29.142,30.664,58.526,30.183,91.912c7.846,102.881,15.893,205.801,23.139,308.762
		h3.723c0-109.404,0-218.77-0.32-328.135c6.405,4.363,12.85,8.727,19.295,13.051c-10.929-25.98-24.62-52.241-22.658-81.383
		c-0.28-44.996,29.703-82.425,36.989-125.819c3.483-33.146,3.323-66.532,4.203-99.798c24.459,29.463,45.636,63.569,79.502,83.225
		c18.335,11.449,40.271,13.611,60.888,18.455c27.381,7.846,55.042-3.803,80.823-12.17c42.873-15.491,67.854-55.924,96.075-88.99
		c0.921,34.146,0.6,68.494,4.604,102.48c6.645,35.027,24.379,66.292,34.627,100.158c7.085,36.148-9.127,69.575-22.338,101.88
		c5.524-2.122,11.009-4.323,16.573-6.445c-0.681,107.844,6.125,215.608,4.043,323.493h3.643
		c8.527-105.243,12.69-210.805,21.337-316.008c0.641-30.784,15.531-58.166,27.501-85.667c1.801,19.456,1.601,39.03,1.561,58.566
		c30.785-20.255,55.924-51.6,57.966-89.75c7.125,55.244,25.219,108.725,28.102,164.609c4.764,89.471,16.773,178.541,16.453,268.25
		h3.443c17.899-191.904,19.611-255.208,2.722-406.277c38.271,15.091,77.781,27.461,118.493,33.986
		C1153.597,1236.409,1142.588,1231.324,1131.579,1226.32z M344.966,831.729c-0.28,34.587,10.729,70.095,0.24,104.162
		c-5.404,23.339-12.97,46.077-18.575,69.375c-13.21,55.283-12.689,113.289-31.825,167.251
		c-79.902-60.927-145.514-141.871-184.985-234.583C94.01,903.827,78.678,868.999,72.673,831.61
		c-6.445-30.223,5.124-63.769,31.144-80.983c22.636-14.975,46.241-25.492,72.565-32.036c83.223-20.69,104.767-22.267,191.242-25.531
		C354.013,737.976,340.683,784.212,344.966,831.729z M448.926,434.902c-32.386,74.057-43.795,154.881-69.775,231.021
		c-68.654,1.401-136.627-9.727-202.999-26.34c-33.826-10.649-70.375-21.737-94.754-49.159
		c-11.009-18.255-11.569-40.672-7.086-61.008c32.672-165.784,157.801-334.83,353.391-426.022
		c46.879-21.857,101.567-46.881,153.807-28.735c61.846,21.483,72.735,155.803,89.11,233.222
		c-28.902-3.763-58.165,2.442-82.945,18.014C539.917,360.363,478.348,379.938,448.926,434.902z M726.023,961.713
		c-2.522-11.768-5.004-23.498-7.446-35.267c12.65-3.883,25.339-7.806,37.99-11.769c-47.677-1.601-95.435-1.601-143.112,0.2
		c14.091,4.083,28.302,7.846,42.473,11.649c-2.442,11.929-5.084,23.818-8.087,35.668c-12.33-0.08-24.619,1.041-36.869,2.162
		c-0.04-24.94,0-49.879,0.04-74.819c50.72-0.16,101.4-0.2,152.119,0.04c0,24.94,0.04,49.92,0.04,74.899
		C750.763,963.434,738.433,962.113,726.023,961.713z M646.12,877.287c18.175-6.725,34.187-18.695,39.15-38.35
		c4.283,21.817,22.937,32.905,42.873,38.31C700.803,877.207,673.461,877.247,646.12,877.287z M869.859,789.097
		c-2.162-2.682-4.323-5.364-6.445-8.006c-0.08,6.085-0.2,18.295-0.28,24.42c-2.242-2.522-4.524-5.004-6.765-7.486
		c-5.244,14.372-10.769,28.662-15.252,43.274c-3.122-3.963-6.165-7.926-9.247-11.93c-1.041,6.045-3.122,18.135-4.203,24.179
		c-2.682-2.482-5.324-4.964-8.006-7.446c-3.122,9.126-6.245,18.294-9.367,27.461c-3.443-3.723-6.805-7.446-10.208-11.169
		c-2.082,4.564-4.163,9.207-6.245,13.811c-15.492-23.458-41.873-33.706-64.851-47.837c6.245-1.521,12.53-3.002,18.815-4.484
		c-3.403-13.331-6.926-26.62-10.609-39.911c-0.641,7.405-1.922,22.137-2.562,29.543c-2.962-0.04-8.967-0.16-11.93-0.2
		c-7.486-54.283-20.576-115.851,11.569-164.649c-8.886,8.606-17.773,17.173-26.62,25.78c-0.641,48.998-0.641,97.997-0.641,146.995
		c-10.008,0-29.983,0-39.991,0c-0.681-48.918,2.762-98.117-1.321-146.835c-9.326-9.808-20.736-17.334-31.104-25.901
		c8.687,16.693,21.097,32.625,19.896,52.721c2.042,37.19,2.402,74.899-3.523,111.808c-4.924,0.04-9.848,0.12-14.772,0.16
		c-1.041-9.887-2.122-19.775-3.243-29.623c-1.561,10.088-4.684,30.263-6.245,40.351c5.805,1.041,11.569,2.082,17.374,3.122
		c-23.099,14.692-46.957,28.542-67.613,46.717c-0.601-3.082-1.761-9.247-2.322-12.33c-4.564,4.203-9.087,8.487-13.651,12.69
		c-1.961-9.487-3.923-18.974-5.925-28.422c-2.722,2.562-5.404,5.164-8.086,7.766c-1.161-6.205-3.523-18.575-4.684-24.74
		c-3.443,4.123-6.846,8.287-10.288,12.45c-4.444-14.652-9.408-29.142-13.691-43.794c-2.202,2.722-4.444,5.444-6.685,8.207
		c-0.2-6.284-0.64-18.814-0.841-25.059c-3.443,4.043-6.886,8.167-10.328,12.25c-15.092-44.555-22.178-92.192-16.053-139.109
		c7.685-28.022,20.495-54.283,29.743-81.784c1.481-9.167,3.283-71.655,15.773-91.471c8.886-10.569,22.537-15.773,33.866-23.179
		c16.413-14.532,38.19-8.047,57.685-7.446c26.74,7.406,51.56-13.451,78.025-5.083c21.4,6.118,43.751,4.413,65.674,3.255
		c20.938-1.106,36.596,3.832,55.084,13.774c11.979,6.441,22.885,15.58,25.956,29.447c10.969,35.067,10.088,72.737,20.416,107.845
		C896.96,657.635,894.519,728.97,869.859,789.097z M991.671,665.562c-23.179-72.857-38.75-148.116-65.091-220.013
		c-18.974-40.591-55.524-69.093-93.833-90.391c-38.23-26.34-80.463-54.883-129.501-47.677
		c11.249-60.086,20.696-120.814,39.311-179.14c13.248-27.6,30.249-47.862,60.803-54.279c50.1-10.521,97.014,7.588,142.547,26.73
		c158.057,66.445,280.673,196.18,341.733,351.661c18.756,47.759,38.37,110.621-5.101,151.62
		c-38.286,28.572-87.157,37.322-132.893,46.607c-24.545,4.983-48.181,8.483-73.159,10.742
		C1068.622,662.134,993.093,670.031,991.671,665.562z M1036.387,968.277c-25.34-58.966-3.203-124.857-9.808-186.226
		c-0.04-31.504-12.57-60.448-24.019-89.07c79.583-1.681,157.883,16.333,233.463,39.832c27.223,9.616,49.893,22.638,63.274,49.644
		c14.848,29.967,10.734,67.951-0.144,98.592c-42.153,118.732-118.132,226.817-219.531,302.156
		C1060.485,1112.43,1062.567,1037.332,1036.387,968.277z"/>
	<path d="M573.714,620.827c-21.276-1.081-40.226-5.045-53.303,14.295c-2.329,3.445-15.501,24.327-18.684,24.314
		c20.016,0.08,38.19-9.167,57.485-13.05c29.223-2.882,58.686-1.121,88.029-1.361c-0.08-3.042-0.32-9.047-0.44-12.09
		C623.051,625.891,598.432,622.084,573.714,620.827z"/>
	<path d="M832.032,622.452c-14.225-4.75-29.952-2.218-44.546-1.095c-5.916,0.454-64.599,6.764-64.546,11.097
		c0.04,3.243,0.12,9.808,0.2,13.05c25.54-0.721,51.08-2.642,76.62-2.202c24.74-3.603,45.636,22.778,69.775,10.889
		C858.676,642.728,847.587,627.646,832.032,622.452z"/>
	<path d="M542.279,676.85c3.042,5.443,6.085,10.928,9.127,16.453c6.245-1.441,12.49-2.882,18.735-4.283
		c-2.082-3.963-4.243-7.886-6.325-11.81c2.242-0.2,4.484-0.4,6.725-0.6c18.375,17.294,42.873-1.201,64.331-1.201
		c-5.364,6.365-10.769,12.69-15.973,19.215c9.166-5.324,18.134-10.969,26.941-16.813
		C617.257,649.389,572.542,653.311,542.279,676.85z M597.682,670.165c5.084-5.084,13.571,3.403,8.487,8.487
		C601.285,683.295,592.998,675.049,597.682,670.165z"/>
	<path d="M775.142,657.274c-19.896-3.323-34.707,10.809-50.279,19.936c7.366,4.203,14.731,8.366,22.137,12.45
		c1.321-4.804,2.562-9.648,4.283-14.292c7.806,3.203,14.772,9.087,23.419,9.888c9.687-2.922,19.335-6.445,28.702-10.408
		c-1.001,3.163-1.962,6.365-2.922,9.568c6.125,3.002,12.29,5.925,18.495,8.807c2.922-5.484,5.845-10.929,8.807-16.413
		C811.01,668.403,795.118,655.593,775.142,657.274z M771.659,678.451c-7.166,5.204-11.049-6.445-3.483-8.727
		C775.542,664.961,779.425,676.049,771.659,678.451z"/>
	<path d="M735.151,703.591c17.533,11.409,38.63,7.126,58.046,4.484C774.501,702.59,753.886,693.823,735.151,703.591z"/>
	<path d="M606.33,716c9.086-4.083,18.013-8.647,26.66-13.651c-18.775,1.041-37.469,2.522-56.084,5.004
		C586.474,710.796,595.961,715.52,606.33,716z"/>
	<path d="M787.071,1084.889c-14.211,19.456-21.137,47.117-45.636,56.685c1.801,2.522,3.563,5.044,5.364,7.606
		c-5.044,0.32-10.048,0.681-15.092,1.041c2.282,5.044,4.524,10.128,6.805,15.252l-20.296,1.081
		c4.404,3.403,8.727,6.885,13.091,10.368c-6.525,2.282-13.051,4.404-19.656,6.365c3.883,2.922,7.766,5.885,11.689,8.887
		c-8.366,1.962-16.652,4.043-24.939,6.165c9.126,4.764,18.374,9.368,27.301,14.532c-26.66,0.04-53.362-0.48-79.902-2.602
		c8.766-3.763,17.533-7.566,26.26-11.449c-8.366-2.322-16.772-4.604-25.179-6.765c3.843-2.962,7.726-5.885,11.649-8.767
		c-6.645-1.922-13.171-4.083-19.656-6.365c4.283-3.523,8.647-6.966,13.05-10.368l-20.296-1.081
		c2.242-5.124,4.524-10.208,6.805-15.252c-5.044-0.36-10.088-0.721-15.092-1.041c1.761-2.562,3.563-5.084,5.364-7.606
		c-24.499-9.608-31.424-37.229-45.676-56.685c11.248,41.594,30.544,80.543,41.193,122.336
		c-42.033-7.486-77.862-31.825-111.087-57.285c56.324,67.974,153.76,92.994,237.866,71.456c38.83-16.293,76.14-37.59,106.243-67.413
		c-34.588,22.418-70.896,41.913-111.408,51.36C758.129,1164.711,776.143,1125.961,787.071,1084.889z"/>
	<path d="M628.627,1268.352c-38.711-5.484-73.058-24.62-107.523-41.632c26.821,20.977,55.163,42.553,90.07,47.117
		c82.424,17.494,178.139,8.847,242.11-51.16C786.07,1261.907,706.568,1285.846,628.627,1268.352z"/>
	<path d="M10.543,1614.063h15.452c10.729-80.022,16.372-161.166,38.07-239.267c8.005-24.86,18.454-48.838,26.5-73.658
		c-60.006,88.509-61.447,197.795-80.022,299.314C10.543,1600.452,10.543,1614.063,10.543,1614.063z"/>
	<path d="M1310.92,1394.411c18.174,72.096,19.375,146.994,33.906,219.651h14.772v-30.183
		c-13.451-96.516-27.542-196.834-76.06-282.941C1292.345,1332.161,1303.394,1362.746,1310.92,1394.411z"/>
	<path d="M426.708,1321.834c-10.487,0-21.016,0.04-31.544,0.16c-11.408,97.957-18.294,204.801,36.548,292.069h3.883
		C396.845,1521.631,401.088,1417.109,426.708,1321.834z"/>
	<path d="M946.716,1321.954c17.814,96.476,26.421,198.115-8.086,292.109h3.563c46.476-89.51,46.677-194.352,33.106-292.109
		C968.133,1321.954,953.881,1321.954,946.716,1321.954z"/>
	<path d="M170.229,1614.063h37.47c-17.014-61.729-18.655-126.058-22.578-189.548
		C169.548,1486.443,164.344,1550.413,170.229,1614.063z"/>
	<path d="M1166.128,1614.063h33.746c5.845-63.65,1.601-127.82-14.292-189.788
		C1181.139,1487.684,1181.179,1552.014,1166.128,1614.063z"/>
</g>
</svg>
