<svg width="243" height="90" viewBox="0 0 243 90" fill="none" xmlns="http://www.w3.org/2000/svg">
<path d="M33.9872 0C15.2109 0 0 14.9928 0 33.5C0 51.8808 15.0057 66.7725 33.5768 67V33.5H68C67.9743 14.9928 52.7635 0 33.9872 0Z" fill="#9DC5D1"/>
<path d="M50.5792 67.2419V44.9952H53.3153L64.5665 62.6136V44.9952H67.3025V67.2419H64.5665L53.3153 49.6236V67.2419H50.5792Z" fill="#9DC5D1"/>
<path d="M82.5172 67.6766C81.3921 67.6766 80.4204 67.5232 79.5254 67.2163C78.656 66.9095 77.9145 66.5259 77.2752 66.0656C76.6359 65.6054 76.1245 65.1707 75.7154 64.736C75.3062 64.3013 75.025 63.9433 74.8204 63.7131L76.3291 61.5907C76.5336 61.8465 76.8149 62.1789 77.1729 62.5624C77.5309 62.946 77.9656 63.3551 78.477 63.7387C78.9884 64.1223 79.5766 64.4547 80.267 64.736C80.9574 65.0172 81.7245 65.1451 82.5939 65.1451C83.4122 65.1451 84.1538 64.9917 84.8186 64.7104C85.4834 64.4291 86.0204 63.9944 86.4296 63.4318C86.8387 62.8693 87.0177 62.1533 87.0177 61.335C87.0177 60.619 86.8643 60.0309 86.583 59.5195C86.3017 59.0081 85.8926 58.599 85.3812 58.241C84.8697 57.883 84.2816 57.5505 83.5912 57.2437C82.9008 56.9368 82.1592 56.63 81.3665 56.3231C80.804 56.093 80.2414 55.8373 79.6789 55.5304C79.1163 55.2236 78.5793 54.8656 78.0935 54.4309C77.6076 53.9962 77.224 53.4848 76.9172 52.8711C76.6103 52.2574 76.4825 51.567 76.4825 50.7487C76.4825 49.9304 76.6359 49.1377 76.9428 48.3962C77.2496 47.6546 77.7099 47.0153 78.2725 46.4272C78.835 45.8647 79.5254 45.4044 80.3181 45.072C81.1108 44.7395 82.0058 44.5861 82.9775 44.5861C83.8469 44.5861 84.6652 44.714 85.4323 44.9952C86.1994 45.2765 86.8898 45.6089 87.478 46.0181C88.0917 46.4272 88.5519 46.8619 88.9099 47.3222L87.6314 49.3423C87.3245 48.9587 86.9665 48.6007 86.5063 48.2427C86.046 47.8848 85.5346 47.6035 84.9209 47.3989C84.3328 47.1943 83.6935 47.0665 83.0031 47.0665C82.1592 47.0665 81.4688 47.2455 80.8807 47.5779C80.2925 47.9359 79.8579 48.3706 79.551 48.9076C79.2441 49.4446 79.0907 50.0327 79.0907 50.672C79.0907 51.2345 79.193 51.6948 79.4231 52.0784C79.6533 52.4619 79.9601 52.7944 80.3437 53.0756C80.7273 53.3569 81.162 53.5871 81.6478 53.7916C82.1336 53.9962 82.6451 54.2008 83.1565 54.3798C84.077 54.7377 84.9465 55.1213 85.7647 55.5049C86.583 55.8884 87.299 56.3231 87.9127 56.8346C88.5264 57.346 89.0122 57.9597 89.3702 58.6501C89.7282 59.3661 89.9072 60.2099 89.9072 61.2327C89.9072 62.588 89.5748 63.7387 88.9355 64.7104C88.2962 65.6565 87.4012 66.3981 86.3017 66.9095C85.2277 67.4209 83.9492 67.6766 82.5172 67.6766Z" fill="#9DC5D1"/>
<path d="M98.0132 67.2419V44.9952H100.749V67.2419H98.0132Z" fill="#9DC5D1"/>
<path d="M110.364 67.2419V44.9952H113.1V54.9167L122.536 44.9952H125.937L115.529 55.914L127.138 67.2419H123.328L113.1 57.346V67.2419H110.364Z" fill="#9DC5D1"/>
<path d="M133.94 67.2419V44.9952H136.676V64.8382H145.626V67.2419H133.94Z" fill="#9DC5D1"/>
<path d="M162.759 67.6766C161.199 67.6766 159.741 67.3698 158.386 66.7816C157.031 66.1935 155.829 65.3752 154.806 64.3012C153.783 63.2528 152.991 62.0254 152.402 60.6191C151.814 59.2127 151.533 57.7295 151.533 56.1186C151.533 54.5076 151.814 52.9989 152.402 51.6181C152.991 50.2117 153.783 49.0099 154.806 47.9359C155.829 46.8875 157.031 46.0437 158.386 45.4555C159.741 44.8674 161.199 44.5605 162.759 44.5605C164.318 44.5605 165.776 44.8674 167.131 45.4555C168.487 46.0437 169.688 46.8619 170.711 47.9359C171.734 48.9843 172.527 50.2117 173.115 51.6181C173.703 53.0245 173.984 54.5076 173.984 56.1186C173.984 57.7295 173.703 59.2127 173.115 60.6191C172.527 62.0254 171.734 63.2528 170.711 64.3012C169.688 65.3497 168.487 66.1935 167.131 66.7816C165.776 67.3953 164.318 67.6766 162.759 67.6766ZM162.759 65.0428C163.935 65.0428 165.009 64.8127 166.006 64.378C167.003 63.9177 167.873 63.304 168.64 62.4857C169.381 61.693 169.97 60.7469 170.404 59.6474C170.813 58.5734 171.044 57.3971 171.044 56.1441C171.044 54.8912 170.839 53.7149 170.404 52.6409C169.995 51.567 169.407 50.6208 168.64 49.8026C167.898 49.0099 167.003 48.3706 166.006 47.9103C165.009 47.45 163.909 47.2455 162.759 47.2455C161.582 47.2455 160.508 47.4756 159.511 47.9103C158.514 48.3706 157.619 48.9843 156.877 49.8026C156.136 50.5953 155.548 51.5414 155.113 52.6409C154.704 53.7149 154.474 54.8912 154.474 56.1441C154.474 57.3971 154.678 58.5734 155.113 59.6474C155.522 60.7213 156.11 61.6675 156.877 62.4857C157.619 63.2784 158.514 63.9177 159.511 64.378C160.508 64.8127 161.582 65.0428 162.759 65.0428Z" fill="#9DC5D1"/>
<path d="M190.835 67.3698L199.632 45.1231H202.189L210.985 67.3698H208.019L205.539 60.8748H196.205L193.725 67.3698H190.835ZM197.203 58.4711H204.669L200.936 48.7798L197.203 58.4711Z" fill="#9DC5D1"/>
<path d="M218.273 67.3698V45.1231H224.589C226.072 45.1231 227.351 45.3788 228.425 45.8902C229.499 46.4016 230.342 47.1432 230.931 48.0893C231.519 49.0355 231.826 50.1861 231.826 51.5414C231.826 52.7177 231.595 53.7405 231.135 54.6611C230.675 55.5816 230.01 56.3231 229.166 56.8857C228.322 57.4738 227.299 57.8318 226.123 58.0108L233.488 67.3698H230.01L223.106 58.2921H221.009V67.3698H218.273ZM221.009 55.9396H223.847C224.896 55.9396 225.816 55.7606 226.584 55.4026C227.351 55.0446 227.939 54.5588 228.348 53.8939C228.757 53.2547 228.962 52.4619 228.962 51.567C228.962 50.2373 228.501 49.1889 227.606 48.4218C226.711 47.6546 225.458 47.2966 223.847 47.2966H221.009V55.9396Z" fill="#9DC5D1"/>
<path d="M240.264 67.3698V45.1231H243V67.3698H240.264Z" fill="#9DC5D1"/>
<path d="M184 34H181V90H184V34Z" fill="#9DC5D1"/>
<path d="M182.898 34H216C216 15.2166 200.783 0 182 0C163.217 0 148 15.2166 148 34H182.898Z" fill="#9DC5D1"/>
</svg>
